<mxfile host="app.diagrams.net" modified="2023-05-04T17:45:07.075Z" agent="Mozilla/5.0 (Windows NT 10.0; Win64; x64) AppleWebKit/537.36 (KHTML, like Gecko) Chrome/112.0.0.0 Safari/537.36" version="21.2.1" etag="sgwcuO99iXYcUKltVdkl" type="github">
  <diagram name="Page-1" id="uoKfNfyXio0blvd-_eHB">
    <mxGraphModel>
      <root>
        <mxCell id="0" />
        <mxCell id="1" parent="0" />
      </root>
    </mxGraphModel>
  </diagram>
</mxfile>
